<?xml version="1.0" standalone="no"?>
<!DOCTYPE svg PUBLIC "-//W3C//DTD SVG 20010904//EN"
 "http://www.w3.org/TR/2001/REC-SVG-20010904/DTD/svg10.dtd">
<svg version="1.0" xmlns="http://www.w3.org/2000/svg"
 width="700.000000pt" height="700.000000pt" viewBox="0 0 700.000000 700.000000"
 preserveAspectRatio="xMidYMid meet">
<metadata>
Created by potrace 1.11, written by Peter Selinger 2001-2013
</metadata>
<g transform="translate(0.000000,700.000000) scale(0.100000,-0.100000)"
fill="#000000" stroke="none">
<path d="M3407 6809 c-31 -5 -83 -19 -115 -32 -54 -22 -2365 -1353 -2500
-1439 -128 -83 -213 -216 -232 -364 -7 -53 -10 -559 -8 -1514 l3 -1435 22 -65
c39 -113 111 -205 211 -268 74 -47 2411 -1396 2468 -1425 122 -62 267 -72 385
-28 80 30 2532 1450 2589 1499 62 54 124 147 152 231 l23 66 3 1415 c2 852 -1
1448 -7 1500 -5 47 -19 111 -31 142 -28 75 -99 169 -164 218 -96 72 -2498
1453 -2566 1476 -79 26 -156 34 -233 23z m-722 -2374 c198 -52 335 -230 335
-436 0 -404 -484 -607 -769 -321 -91 91 -132 188 -133 316 0 39 5 92 12 116
65 243 313 388 555 325z m2525 -525 l0 -140 -670 0 -670 0 0 140 0 140 670 0
670 0 0 -140z m-230 -535 l0 -145 -557 2 -558 3 -3 143 -3 142 561 0 560 0 0
-145z m-1846 -28 c78 -36 136 -85 175 -145 54 -85 61 -124 61 -364 l0 -218
-810 0 -810 0 0 203 c0 219 10 286 55 362 31 53 101 122 150 147 87 46 104 47
625 45 l495 -2 59 -28z m1296 -482 l0 -145 -280 0 -280 0 0 145 0 145 280 0
280 0 0 -145z"/>
</g>
</svg>
