<?xml version="1.0" encoding="UTF-8" standalone="no"?>
<svg
   xmlns:dc="http://purl.org/dc/elements/1.1/"
   xmlns:cc="http://creativecommons.org/ns#"
   xmlns:rdf="http://www.w3.org/1999/02/22-rdf-syntax-ns#"
   xmlns:svg="http://www.w3.org/2000/svg"
   xmlns="http://www.w3.org/2000/svg"
   xmlns:sodipodi="http://sodipodi.sourceforge.net/DTD/sodipodi-0.dtd"
   xmlns:inkscape="http://www.inkscape.org/namespaces/inkscape"
   version="1.2"
   x="0px"
   y="0px"
   viewBox="0 0 100 100"
   style="enable-background:new 0 0 100 100;"
   xml:space="preserve"
   id="svg3749"
   sodipodi:docname="website.icon.v1.svg"
   inkscape:version="0.92.3 (unknown)">
    <metadata
   id="metadata3755">
        <rdf:RDF>
            <cc:Work
   rdf:about="">
                <dc:format>image/svg+xml</dc:format>
                <dc:type
   rdf:resource="http://purl.org/dc/dcmitype/StillImage" />
            </cc:Work>
        </rdf:RDF>
    </metadata>
    <defs
   id="defs3753" />
    <sodipodi:namedview
   pagecolor="#ffffff"
   bordercolor="#666666"
   borderopacity="1"
   objecttolerance="10"
   gridtolerance="10"
   guidetolerance="10"
   inkscape:pageopacity="0"
   inkscape:pageshadow="2"
   inkscape:window-width="1920"
   inkscape:window-height="1000"
   id="namedview3751"
   showgrid="false"
   inkscape:zoom="9.02"
   inkscape:cx="45.454545"
   inkscape:cy="58.64745"
   inkscape:window-x="0"
   inkscape:window-y="0"
   inkscape:window-maximized="1"
   inkscape:current-layer="svg3749" />
    <path
   d="M87.9,23.6l-34.6-20c-2.2-1.3-5-1.3-7.2,0l-34.6,20c-2.2,1.3-3.6,3.7-3.6,6.2v40c0,2.6,1.4,5,3.6,6.2l34.6,20             c1.1,0.6,2.3,1,3.6,1c1.3,0,2.5-0.3,3.6-1l34.6-20c2.2-1.3,3.6-3.7,3.6-6.2v-40C91.5,27.3,90.1,24.9,87.9,23.6z             M36.7,36.4             c3.6,0,6.5,2.9,6.5,6.5c0,3.6-2.9,6.5-6.5,6.5c-3.6,0-6.5-2.9-6.5-6.5C30.2,39.3,33.1,36.4,36.7,36.4z             M48.3,62.6H25v-5.3             c0-3.1,2.5-5.6,5.6-5.6h12c3.1,0,5.6,2.5,5.6,5.6V62.6z             M63.3,61.1h-8V57h8V61.1z             M71.2,53.8h-16v-4.1h16V53.8z             M74.3,46.2H55.3             v-4.1h19.1V46.2z"
   id="path3747"
   style="fill:#2196f3;fill-opacity:1" />
</svg>